<?xml version="1.0" encoding="utf-8"?>
<!-- Generator: Adobe Illustrator 22.0.0, SVG Export Plug-In . SVG Version: 6.00 Build 0)  -->
<svg version="1.1" id="Layer_1" xmlns="http://www.w3.org/2000/svg" xmlns:xlink="http://www.w3.org/1999/xlink" x="0px" y="0px"
	 viewBox="0 0 547.2 446.4" style="enable-background:new 0 0 547.2 446.4;" xml:space="preserve">
<style type="text/css">
	.st0{fill:#D5E0E0;}
	.st1{fill:#FFFFFF;}
	.st2{fill:#565E66;}
	.st3{fill:none;stroke:#565E66;stroke-width:6;stroke-linecap:round;stroke-linejoin:round;}
	.st4{fill:#009CEB;}
	.st5{fill:#4DBDEB;}
	.st6{fill:none;stroke:#B1B8B9;stroke-width:6;stroke-linecap:round;stroke-linejoin:round;}
	.st7{fill:none;stroke:#53BCE7;stroke-width:4;stroke-linecap:round;stroke-dasharray:8.86;}
	.st8{fill:none;stroke:#4DBDEB;stroke-width:4;stroke-linecap:round;stroke-miterlimit:10;}
</style>
<path class="st0" d="M163.4,439.9H11.9c-3,0-5.5-2.4-5.5-5.5l0,0V302.7c0-3,2.4-5.5,5.6-5.5h151.6c3,0,5.5,2.4,5.5,5.5v131.7
	C168.9,437.4,166.5,439.9,163.4,439.9L163.4,439.9z"/>
<path class="st1" d="M149.5,430.5H25.1c-4-0.3-7.2-3.7-7.2-7.7v-82.4c0-4.3,3.4-7.7,7.7-7.7h123.9c4.3,0,7.7,3.4,7.7,7.7l0,0v82.4
	C157,426.9,153.8,430.2,149.5,430.5z"/>
<circle class="st2" cx="21.9" cy="313.8" r="3.4"/>
<circle class="st2" cx="33.4" cy="313.8" r="3.4"/>
<circle class="st2" cx="45.5" cy="313.8" r="3.4"/>
<line class="st3" x1="72.7" y1="313.8" x2="142.4" y2="313.8"/>
<path class="st4" d="M112.2,356.8c-5.1-5.1-13.4-5.1-18.5,0l0,0l-10.5,10.5l-1.4,1.4c-1.2,1.2-2.2,2.6-2.8,4.2c0,0,0,0,0,0.1
	c-0.8,2-1.1,4-0.9,6.2l0,0c0.3,3,1.6,5.9,3.7,8c0.9,0.9,1.9,1.6,2.9,2.3l1.7-1.8c0.6-0.6,1-1.4,1-2.3l0,0c-0.3-0.1-0.7-0.3-1-0.5
	c-0.5-0.3-0.9-0.7-1.3-1.1c-0.7-0.7-1.3-1.5-1.7-2.3c-0.7-1.5-1-3-0.8-4.6v-0.1c0.2-1.8,1.1-3.4,2.3-4.8l0.1-0.1L89,368l7.8-7.8
	c0.3-0.3,0.6-0.6,1-0.9l0.3-0.2c2.8-1.9,6.5-1.9,9.2,0c0.2,0.2,0.5,0.3,0.7,0.5c0.2,0.2,0.4,0.4,0.6,0.6c3.2,3.2,3.2,8.5,0,11.7l0,0
	l-7.8,7.8c0.5,1.7,0.8,3.5,0.8,5.3c0,0.2,0,0.5,0,0.7l10.5-10.4C117.1,370.3,117.2,362,112.2,356.8
	C112.3,356.9,112.3,356.8,112.2,356.8z"/>
<path class="st4" d="M97.1,383.9c-0.2-1.8-0.7-3.5-1.6-5.1c-0.6-1.1-1.4-2.1-2.2-2.9c-0.9-0.9-1.9-1.6-2.9-2.2l-1.7,1.7
	c-0.6,0.6-1,1.4-1,2.3c0.4,0.2,0.7,0.4,1,0.6c0.2,0.2,0.5,0.3,0.7,0.5c0.2,0.2,0.4,0.4,0.6,0.6c0.7,0.7,1.2,1.4,1.6,2.3
	c0.7,1.5,1,3,0.8,4.7v0.1c-0.2,1.8-1.1,3.4-2.3,4.8l-0.1,0.1l-3.9,4l-7.8,7.8c-0.3,0.3-0.6,0.6-1,0.9c-0.1,0.1-0.2,0.2-0.3,0.2
	c-2.8,1.8-6.4,1.8-9.2,0c-0.5-0.3-0.9-0.7-1.4-1.1c-3.2-3.2-3.2-8.5,0-11.8l7.8-7.8c-0.5-1.7-0.8-3.5-0.8-5.3c0-0.2,0-0.5,0-0.7
	l-10.4,10.5c-5.1,5.1-5.2,13.3-0.1,18.5c0,0,0,0,0.1,0.1c5.1,5.1,13.4,5.1,18.5,0l0,0L92.1,396l1.4-1.4c1.3-1.2,2.2-2.6,2.8-4.3
	c0,0,0,0,0-0.1C96.9,388.1,97.2,386,97.1,383.9C97,383.9,97.1,383.9,97.1,383.9z"/>
<path class="st0" d="M349.3,439.9H197.7c-3,0-5.5-2.4-5.5-5.5l0,0V302.7c0-3,2.4-5.5,5.5-5.5h151.6c3,0,5.5,2.4,5.5,5.5v131.7
	C354.9,437.4,352.3,439.9,349.3,439.9L349.3,439.9z"/>
<path class="st1" d="M335.5,430.5H211c-4-0.3-7.2-3.7-7.1-7.7v-82.4c0-4.3,3.4-7.7,7.7-7.7h123.9c4.3,0,7.7,3.4,7.7,7.7l0,0v82.4
	C342.9,426.9,339.6,430.2,335.5,430.5z"/>
<circle class="st2" cx="207.8" cy="313.8" r="3.4"/>
<circle class="st2" cx="219.4" cy="313.8" r="3.4"/>
<circle class="st2" cx="231.4" cy="313.8" r="3.4"/>
<line class="st3" x1="258.6" y1="313.8" x2="328.3" y2="313.8"/>
<path class="st4" d="M298.2,356.8c-5.1-5.1-13.4-5.1-18.5,0l0,0l-10.5,10.5l-1.4,1.4c-1.3,1.2-2.2,2.6-2.8,4.2c0,0,0,0,0,0.1
	c-0.8,2-1.1,4-0.9,6.2l0,0c0.2,1.8,0.7,3.5,1.6,5.1c0.6,1.1,1.3,2.1,2.2,2.9c0.9,0.9,1.9,1.6,2.9,2.3l1.7-1.8c0.6-0.6,1-1.4,1-2.3
	l0,0c-0.3-0.1-0.7-0.3-1-0.5c-0.5-0.3-0.9-0.7-1.3-1.1c-0.7-0.7-1.2-1.5-1.6-2.3c-0.7-1.5-1-3-0.8-4.6v-0.1c0.2-1.8,1.1-3.4,2.3-4.8
	l0.1-0.1l3.9-3.9l7.8-7.8c0.3-0.3,0.6-0.6,1-0.9c0.1-0.1,0.2-0.2,0.3-0.2c2.8-1.9,6.5-1.9,9.2,0c0.2,0.2,0.5,0.3,0.7,0.5
	c0.2,0.2,0.4,0.4,0.6,0.6c3.2,3.2,3.2,8.5,0,11.7l0,0l-7.8,7.8c0.5,1.7,0.8,3.5,0.8,5.3c0,0.2,0,0.5,0,0.7l10.5-10.5
	C303.3,370.3,303.4,362,298.2,356.8C298.3,356.9,298.2,356.8,298.2,356.8z"/>
<path class="st4" d="M282.9,383.9c-0.2-1.8-0.7-3.5-1.6-5.1c-0.6-1.1-1.3-2.1-2.2-2.9c-0.9-0.9-1.9-1.6-2.9-2.2l-1.7,1.8
	c-0.6,0.6-1,1.4-1,2.3c0.3,0.2,0.7,0.4,1,0.6l0.7,0.5c0.2,0.2,0.4,0.4,0.6,0.6c0.7,0.7,1.2,1.4,1.6,2.3c0.7,1.5,1,3,0.8,4.7v0.1
	c-0.2,1.8-1.1,3.4-2.3,4.8l-0.1,0.1l-4,4l-7.8,7.8c-0.3,0.3-0.6,0.6-1,0.9c-0.1,0.1-0.2,0.2-0.3,0.2c-2.8,1.8-6.4,1.8-9.2,0
	c-0.5-0.3-0.9-0.7-1.3-1.1c-3.2-3.2-3.2-8.5,0-11.8l7.8-7.8c-0.5-1.7-0.8-3.5-0.8-5.3c0-0.2,0-0.5,0-0.7L248.7,388
	c-5.1,5.1-5.1,13.4,0,18.5l0,0c5.1,5.1,13.4,5.1,18.5,0l0,0l10.5-10.5l1.4-1.4c1.2-1.2,2.2-2.6,2.8-4.2c0,0,0,0,0-0.1
	C282.9,388.2,283.2,386,282.9,383.9C283,384,283,383.9,282.9,383.9z"/>
<path class="st0" d="M535.2,439.9H383.7c-3,0-5.5-2.4-5.5-5.5l0,0V302.7c0-3,2.4-5.5,5.5-5.5l0,0h151.6c3,0,5.6,2.4,5.6,5.5l0,0
	v131.7C540.7,437.4,538.3,439.9,535.2,439.9L535.2,439.9z"/>
<path class="st1" d="M521.4,430.5H397c-4-0.3-7.2-3.7-7.1-7.7v-82.4c0-4.3,3.4-7.7,7.7-7.7h123.9c4.3,0,7.7,3.4,7.7,7.7l0,0v82.4
	C528.9,426.9,525.5,430.2,521.4,430.5z"/>
<circle class="st2" cx="393.7" cy="313.8" r="3.4"/>
<circle class="st2" cx="404.8" cy="313.8" r="3.4"/>
<circle class="st2" cx="417.3" cy="313.8" r="3.4"/>
<line class="st3" x1="444.5" y1="313.8" x2="514.2" y2="313.8"/>
<path class="st4" d="M484.1,356.8c-5.1-5.1-13.4-5.1-18.5,0l0,0l-10.5,10.5l-1.4,1.4c-1.3,1.2-2.2,2.6-2.8,4.2c0,0,0,0,0,0.1
	c-0.8,2-1.1,4-0.9,6.2l0,0c0.2,1.8,0.7,3.5,1.7,5.1c0.6,1.1,1.3,2.1,2.2,2.9c0.9,0.9,1.9,1.6,2.9,2.3l1.8-1.8c0.6-0.6,1-1.4,1-2.3
	l0,0c-0.3-0.1-0.7-0.3-1-0.5c-0.5-0.3-0.9-0.7-1.3-1.1c-0.7-0.7-1.2-1.5-1.6-2.3c-0.7-1.5-1-3-0.8-4.6v-0.1c0.2-1.8,1.1-3.4,2.3-4.8
	l0.1-0.1l3.9-3.9l7.8-7.8c0.3-0.3,0.6-0.6,1-0.9l0.3-0.2c1.4-0.9,2.9-1.4,4.6-1.4c1.7,0,3.2,0.5,4.6,1.4l0.7,0.5
	c0.2,0.2,0.4,0.4,0.6,0.6c3.2,3.2,3.2,8.5,0,11.7l-7.8,7.8c0.5,1.7,0.8,3.5,0.8,5.3c0,0.2,0,0.5,0,0.7l10.3-10.4
	C489.2,370.4,489.3,362.1,484.1,356.8L484.1,356.8z"/>
<path class="st4" d="M468.8,383.9c-0.3-3-1.7-5.9-3.8-8c-0.9-0.9-1.9-1.6-2.9-2.2l-1.8,1.7c-0.6,0.6-1,1.4-1,2.3
	c0.3,0.2,0.7,0.4,1,0.6l0.7,0.5c0.2,0.2,0.4,0.4,0.6,0.6c0.7,0.7,1.2,1.4,1.6,2.3c0.7,1.5,1,3,0.8,4.7v0.1c-0.2,1.8-1.1,3.4-2.3,4.8
	l-0.1,0.1l-3.9,4l-7.8,7.8c-0.3,0.3-0.6,0.6-1,0.9c-0.1,0.1-0.2,0.2-0.3,0.2c-2.8,1.8-6.4,1.8-9.2,0c-0.5-0.3-1-0.7-1.4-1.1
	c-3.2-3.2-3.2-8.5,0-11.8l7.8-7.8c-0.5-1.7-0.8-3.5-0.8-5.3c0-0.2,0-0.5,0-0.7l-10.5,10.5c-5.1,5.1-5.1,13.4,0,18.5l0,0
	c5.1,5.1,13.4,5.1,18.5,0l0,0l10.5-10.5l1.4-1.4c1.2-1.2,2.2-2.6,2.8-4.2c0,0,0,0,0-0.1C468.7,388.2,469,386,468.8,383.9
	C468.8,384,468.9,383.9,468.8,383.9z"/>
<path class="st0" d="M349.3,149.2H197.7c-3,0-5.5-2.4-5.5-5.5V12c0-3,2.4-5.5,5.5-5.5l0,0h151.6c3,0,5.6,2.4,5.6,5.5c0,0,0,0,0,0.1
	v131.6C354.9,146.7,352.4,149.2,349.3,149.2L349.3,149.2z"/>
<path class="st1" d="M335.5,139.8H211c-4-0.3-7.2-3.6-7.1-7.7V49.7c0-4.3,3.4-7.7,7.7-7.7h123.9c4.3,0,7.7,3.4,7.7,7.7l0,0l0,0v82.4
	C342.9,136.3,339.6,139.6,335.5,139.8z"/>
<circle class="st2" cx="207.8" cy="23.1" r="3.4"/>
<circle class="st2" cx="219.4" cy="23.1" r="3.4"/>
<circle class="st2" cx="231.4" cy="23.1" r="3.4"/>
<rect x="214.9" y="50.8" class="st5" width="116.7" height="31.2"/>
<rect x="214.9" y="93.4" class="st5" width="36.5" height="36.5"/>
<line class="st6" x1="263" y1="95.5" x2="327.7" y2="95.5"/>
<line class="st6" x1="263" y1="112.2" x2="327.7" y2="112.2"/>
<line class="st6" x1="263" y1="126.6" x2="327.7" y2="126.6"/>
<line class="st3" x1="258.6" y1="23.1" x2="328.3" y2="23.1"/>
<line class="st7" x1="273.6" y1="265.6" x2="273.6" y2="169.6"/>
<polyline id="Shape" class="st8" points="281.5,272.4 273.5,283 265.5,272.2 "/>
<line class="st7" x1="101.2" y1="264.2" x2="193.2" y2="162.3"/>
<polyline id="Shape-2" class="st8" points="101,276.9 87.7,278.7 89.7,265.4 "/>
<line class="st7" x1="445.8" y1="264.2" x2="353.9" y2="162.3"/>
<polyline id="Shape-3" class="st8" points="446,276.9 459.3,278.7 457.3,265.4 "/>
</svg>
